<?xml version="1.0" encoding="UTF-8" standalone="no"?>
<svg
   fill="none"
   viewBox="0 0 24 24"
   id="Alpinejs--Streamline-Svg-Logos"
   height="24"
   width="24"
   version="1.1"
   sodipodi:docname="htmx-alpine.svg"
   inkscape:version="1.2.2 (b0a8486541, 2022-12-01)"
   xmlns:inkscape="http://www.inkscape.org/namespaces/inkscape"
   xmlns:sodipodi="http://sodipodi.sourceforge.net/DTD/sodipodi-0.dtd"
   xmlns="http://www.w3.org/2000/svg"
   xmlns:svg="http://www.w3.org/2000/svg">
  <defs
     id="defs24" />
  <sodipodi:namedview
     id="namedview22"
     pagecolor="#ffffff"
     bordercolor="#666666"
     borderopacity="1.0"
     inkscape:showpageshadow="2"
     inkscape:pageopacity="0.0"
     inkscape:pagecheckerboard="0"
     inkscape:deskcolor="#d1d1d1"
     showgrid="false"
     inkscape:zoom="9.8333333"
     inkscape:cx="12"
     inkscape:cy="12"
     inkscape:window-width="956"
     inkscape:window-height="1040"
     inkscape:window-x="1366"
     inkscape:window-y="0"
     inkscape:window-maximized="1"
     inkscape:current-layer="Alpinejs--Streamline-Svg-Logos" />
  <desc
     id="desc13">
    Alpinejs Streamline Icon: https://streamlinehq.com
  </desc>
  <g
     id="g187"
     transform="translate(0,10)">
    <path
       fill="#2d3441"
       d="M 8.08505,12.91355 8.224125,12.4639 H 9.10625 l 0.1391,0.44965 H 9.887425 L 9.073875,10.3567 H 8.298425 L 7.43725,12.91355 Z m 0.882125,-0.9012 H 8.37845 l 0.299125,-0.935475 z m 1.9205,0.9012 V 10.2843 H 10.278 v 2.62925 z m 1.257475,0.9107 -5e-5,-0.989725 0.0019,0.0018 c 0.01915,0.01767 0.03962,0.03352 0.06142,0.04755 l 0.01103,0.0069 c 0.09272,0.0559 0.2083,0.08383 0.34675,0.08383 0.158775,0 0.3077,-0.03938 0.446775,-0.118125 0.1391,-0.07875 0.2515,-0.192425 0.33725,-0.341025 0.08573,-0.148625 0.1286,-0.32835 0.1286,-0.5392 0,-0.2121 -0.04225,-0.392475 -0.1267,-0.541075 -0.08447,-0.148625 -0.194025,-0.2623 -0.32865,-0.34105 -0.13465,-0.07875 -0.2769,-0.118125 -0.4268,-0.118125 -0.113025,0 -0.219725,0.0289 -0.320075,0.0867 -0.07225,0.0416 -0.13445,0.101475 -0.186625,0.17965 l -0.0075,0.0115 -0.04975,-0.216875 H 11.53545 v 2.787375 z m 0.323875,-1.406075 c -0.05842,0 -0.1124,-0.0108 -0.16195,-0.03238 -0.04952,-0.0216 -0.0889,-0.05145 -0.118125,-0.08955 -0.0292,-0.03813 -0.0438,-0.08258 -0.0438,-0.133375 l -5e-5,-0.30865 2.25e-4,-0.0131 c 0.0016,-0.05625 0.01405,-0.10605 0.03715,-0.149425 l 0.0055,-0.0099 c 0.02858,-0.0489 0.06827,-0.0867 0.119075,-0.113375 0.05083,-0.02667 0.1086,-0.04 0.1734,-0.04 0.08,0 0.148925,0.01842 0.2067,0.05525 0.0578,0.03683 0.102575,0.08892 0.134325,0.156225 0.03175,0.06733 0.04763,0.146075 0.04763,0.23625 0,0.1067 -0.02128,0.19245 -0.06382,0.257225 -0.04255,0.06477 -0.09463,0.111775 -0.156225,0.140975 -0.0616,0.02923 -0.121625,0.04383 -0.18005,0.04383 z M 14.32665,10.7949 c 0.111775,0 0.20005,-0.02952 0.26485,-0.0886 0.06478,-0.05905 0.09715,-0.142575 0.09715,-0.250525 0,-0.105425 -0.03238,-0.189575 -0.09715,-0.25245 -0.0648,-0.06288 -0.153075,-0.09432 -0.26485,-0.09432 -0.115575,0 -0.2048,0.03145 -0.267675,0.09432 -0.06288,0.06288 -0.09432,0.147025 -0.09432,0.25245 0,0.10795 0.03145,0.191475 0.09432,0.250525 0.06288,0.05907 0.1521,0.0886 0.267675,0.0886 z m 0.30485,2.11865 v -1.888125 h -0.609675 v 1.888125 z m 1.310825,0 v -0.790675 l 10e-5,-0.0194 c 0.0015,-0.12815 0.01732,-0.23295 0.04763,-0.314375 l 0.0046,-0.01205 c 0.03492,-0.087 0.08163,-0.1502 0.14005,-0.189575 0.05842,-0.03937 0.122575,-0.05905 0.192425,-0.05905 0.0686,0 0.127025,0.02383 0.175275,0.07145 0.04828,0.04763 0.0724,0.120975 0.0724,0.22005 v 1.093625 h 0.6135 v -1.093625 c 0,-0.16385 -0.02413,-0.309275 -0.0724,-0.4363 -0.04823,-0.127025 -0.12348,-0.226725 -0.22573,-0.299125 -0.10225,-0.0724 -0.234025,-0.1086 -0.39535,-0.1086 -0.140975,0 -0.26705,0.03938 -0.378175,0.118125 -0.069,0.04887 -0.128925,0.115125 -0.1798,0.19875 l -0.0053,0.0088 -0.06167,-0.264675 h -0.5373 v 1.876675 z m 2.59305,0.06095 c 0.15495,0 0.2918,-0.02793 0.410575,-0.08383 0.11875,-0.05588 0.2153,-0.13145 0.2896,-0.226725 0.0743,-0.09525 0.120975,-0.201325 0.140025,-0.318175 H 18.7697 c -0.0165,0.04955 -0.04573,0.08575 -0.08762,0.1086 -0.04193,0.02287 -0.09083,0.0343 -0.1467,0.0343 -0.0686,0 -0.12545,-0.0162 -0.170525,-0.04858 -0.0451,-0.0324 -0.07907,-0.0778 -0.101925,-0.13625 -0.02287,-0.05843 -0.0343,-0.12765 -0.0343,-0.20765 l 2.5e-5,0.0038 h 1.127875 c 0.03008,-0.134775 0.03595,-0.26585 0.01757,-0.3932 l -0.0033,-0.0212 c -0.02222,-0.134 -0.06922,-0.25435 -0.141,-0.36105 -0.07175,-0.106675 -0.166075,-0.191475 -0.282925,-0.25435 -0.11685,-0.06288 -0.254025,-0.0943 -0.411525,-0.0943 -0.158775,0 -0.3074,0.03938 -0.44585,0.118125 -0.13845,0.07875 -0.250225,0.192125 -0.335325,0.3401 -0.0851,0.147975 -0.12765,0.325475 -0.12765,0.5325 0,0.20705 0.04287,0.38615 0.128625,0.5373 0.08573,0.15115 0.197825,0.26735 0.336275,0.34865 0.13845,0.0813 0.286425,0.121925 0.443925,0.121925 z m 0.28955,-1.18315 H 18.23135 l 5e-5,-5.25e-4 c 0.0046,-0.0521 0.01505,-0.09843 0.03125,-0.13895 l 0.005,-0.012 c 0.02605,-0.05905 0.06287,-0.10415 0.1105,-0.135275 0.04765,-0.0311 0.10385,-0.04668 0.168625,-0.04668 0.05842,0 0.106375,0.01175 0.14385,0.03525 0.03747,0.0235 0.06635,0.05462 0.08667,0.09335 0.02032,0.03875 0.03397,0.08098 0.04097,0.1267 0.0035,0.02288 0.0056,0.04558 0.0064,0.06813 z m 1.19845,1.1565 c 0.12065,0 0.220375,-0.03653 0.299125,-0.109575 0.07875,-0.07302 0.118125,-0.166075 0.118125,-0.2791 0,-0.11305 -0.03937,-0.20705 -0.118125,-0.281975 -0.07875,-0.07495 -0.178475,-0.112425 -0.299125,-0.112425 -0.120675,0 -0.2188,0.03747 -0.294375,0.112425 -0.07558,0.07492 -0.11335,0.168925 -0.11335,0.281975 0,0.111775 0.03777,0.2045 0.11335,0.27815 0.07558,0.07367 0.1737,0.110525 0.294375,0.110525 z m 1.1641,-2.15295 c 0.111775,0 0.20005,-0.02952 0.264825,-0.0886 0.0648,-0.05905 0.09718,-0.142575 0.09718,-0.250525 0,-0.105425 -0.03238,-0.189575 -0.09718,-0.25245 -0.06478,-0.06288 -0.15305,-0.09432 -0.264825,-0.09432 -0.111775,0 -0.200675,0.03145 -0.266725,0.09432 -0.06605,0.06288 -0.09908,0.147025 -0.09908,0.25245 0,0.10795 0.03303,0.191475 0.09908,0.250525 0.06605,0.05907 0.15495,0.0886 0.266725,0.0886 z m -0.3639,3.09605 c 0.222275,0 0.390575,-0.06065 0.5049,-0.181975 0.1143,-0.1213 0.171475,-0.3261 0.171475,-0.614425 v -2.0653 h -0.6135 v 2.05385 c 0,0.10925 -0.01938,0.182275 -0.0581,0.219125 -0.03875,0.03683 -0.0975,0.05525 -0.17625,0.05525 -0.06097,0 -0.127025,-0.0089 -0.19815,-0.02668 -0.07112,-0.0178 -0.134,-0.03748 -0.188625,-0.05907 v 0.52395 c 0.08765,0.02413 0.17465,0.04605 0.261025,0.06573 0.08638,0.0197 0.18545,0.02955 0.297225,0.02955 z m 2.1015,-0.91645 c 0.1575,0 0.298475,-0.0292 0.42295,-0.08763 0.1245,-0.05842 0.2226,-0.134325 0.294375,-0.227675 0.07178,-0.09337 0.10765,-0.192125 0.10765,-0.296275 0,-0.114325 -0.03685,-0.209575 -0.1105,-0.2858 -0.07368,-0.0762 -0.17465,-0.1397 -0.30295,-0.190525 L 22.818375,11.67895 C 22.73835,11.651 22.69835,11.6129 22.69835,11.564625 c 0,-0.03557 0.01905,-0.06415 0.05715,-0.08575 0.0381,-0.02158 0.09017,-0.03238 0.156225,-0.03238 0.08002,0 0.1372,0.01492 0.171475,0.04477 0.0343,0.02985 0.05145,0.0651 0.05145,0.10575 H 23.6929 C 23.6916,11.41664 23.62367,11.26804 23.489025,11.151165 23.3544,11.034315 23.16195,10.97589 22.911725,10.97589 c -0.266725,0 -0.47695,0.05145 -0.630625,0.154325 -0.1537,0.102875 -0.23055,0.237525 -0.23055,0.403925 0,0.118125 0.03652,0.22005 0.109575,0.305775 0.07302,0.08575 0.17685,0.15655 0.3115,0.21245 l 0.45535,0.177175 c 0.04828,0.01905 0.08383,0.0381 0.1067,0.05718 0.02285,0.01905 0.0343,0.04445 0.0343,0.0762 0,0.02412 -0.0083,0.04667 -0.02478,0.06762 -0.01652,0.02097 -0.04127,0.0378 -0.0743,0.0505 -0.03303,0.0127 -0.07495,0.01905 -0.12575,0.01905 -0.08383,0 -0.1502,-0.0127 -0.1991,-0.0381 -0.0489,-0.0254 -0.07463,-0.07113 -0.07718,-0.137175 h -0.5506 c -0.0013,0.146075 0.0365,0.26705 0.11335,0.36295 0.07685,0.0959 0.18385,0.16765 0.32105,0.2153 0.137175,0.04763 0.2953,0.07143 0.4744,0.07143 z"
       stroke-width="0.25"
       id="path15" />
    <path
       fill="#77c1d2"
       d="M 5.0842,10.187375 6.465425,11.562525 5.0842,12.937675 3.703,11.562525 Z"
       stroke-width="0.25"
       id="path17" />
    <path
       fill="#2d3441"
       d="M 1.63121,10.187375 4.494625,13.03825 H 1.73221 L 0.25,11.562525 Z"
       stroke-width="0.25"
       id="path19" />
  </g>
  <path
     d="M -0.05037986,9.0563148 V 7.0563143 l 7.08999996,-2.98 0.58,1.94 -5.1,2.05 5.16,2.0499997 -0.63,1.9 z M 16.31962,10.086315 l 5.18,-2.0000007 -5.16,-2.09 0.65,-1.88 6.96,2.88 v 2.1199995 l -7,2.9300012 z m -2.85,-9.9800007 h 2.48 l -5.47,15.8800007 H 7.9996201 Z"
     fill="#000000"
     stroke-width="1"
     id="path6" />
  <text
     xml:space="preserve"
     style="font-style:italic;font-weight:bold;font-size:2.66667px;line-height:1.25;font-family:sans-serif;-inkscape-font-specification:'sans-serif, Bold Italic';font-variant-ligatures:none;text-align:center;text-decoration:none;text-decoration-line:none;text-decoration-color:#000000;text-anchor:middle;fill:#0000ff;stop-color:#000000"
     x="12.236187"
     y="18.659477"
     id="text265"><tspan
       sodipodi:role="line"
       id="tspan263"
       x="12.236187"
       y="18.659477">with</tspan></text>
</svg>
